<svg width="24" height="25" viewBox="0 0 24 25" fill="none" xmlns="http://www.w3.org/2000/svg">
<path d="M5 8.5H19" stroke="#2F394A" stroke-width="1.25" stroke-linecap="round"/>
<path d="M7.00058 12.2412C6.94591 11.7346 10.7503 12.7832 11.3753 12.7832C12.0004 12.7831 13.8752 12.7832 15.1251 12.241C16.375 11.6988 17 12.241 17 12.241C17 12.241 16.4163 13.5643 16.5 14L15.5 22H8L7.00058 12.2412Z" fill="white"/>
<path d="M7.07657 9.57125C7.03522 8.9924 7.49372 8.5 8.07407 8.5H15.9261C16.5064 8.5 16.9649 8.9924 16.9236 9.57125L16.0664 21.5712C16.029 22.0945 15.5936 22.5 15.069 22.5H8.93117C8.40657 22.5 7.97112 22.0945 7.93372 21.5712L7.07657 9.57125Z" stroke="#2F394A" stroke-width="1.25"/>
<path d="M12 5.5V3.5C12 2.94771 12.4477 2.5 13 2.5H14.5" stroke="#2F394A" stroke-width="1.25" stroke-linecap="round"/>
<path d="M7.36075 6.3356C7.4411 5.8534 7.8583 5.5 8.34715 5.5H15.6529C16.1417 5.5 16.5589 5.8534 16.6392 6.3356L17 8.5H7L7.36075 6.3356Z" fill="white" stroke="#2F394A" stroke-width="1.25"/>
</svg>
