<svg width="24" height="25" viewBox="0 0 24 25" fill="none" xmlns="http://www.w3.org/2000/svg">
<path d="M19.5 17.5V8.5C19.5 7.9477 19.0523 7.5 18.5 7.5H17.1562H13.1719H5.5C4.94771 7.5 4.5 7.9477 4.5 8.5V17.5C4.5 18.0523 4.94771 18.5 5.5 18.5H18.5C19.0523 18.5 19.5 18.0523 19.5 17.5Z" fill="white" stroke="#2F394A" stroke-width="1.25" stroke-linecap="round" stroke-linejoin="round"/>
<path d="M3 18.5H21" stroke="#2F394A" stroke-width="1.25" stroke-linecap="round" stroke-linejoin="round"/>
<path d="M3 21.5H21" stroke="#2F394A" stroke-width="1.25" stroke-linecap="round" stroke-linejoin="round"/>
<path d="M4.5 11H7.5V13.5H10.5V11H13.5V15H16.5V11H19.5" stroke="#2F394A" stroke-width="1.25" stroke-linecap="round" stroke-linejoin="round"/>
<path d="M4.5 12V10" stroke="#2F394A" stroke-width="1.25" stroke-linecap="round" stroke-linejoin="round"/>
<path d="M19.5 12V10" stroke="#2F394A" stroke-width="1.25" stroke-linecap="round" stroke-linejoin="round"/>
<path d="M16.5 7.5V4.5" stroke="#2F394A" stroke-width="1.25" stroke-linecap="round" stroke-linejoin="round"/>
<path d="M12 7.5V2.5" stroke="#2F394A" stroke-width="1.25" stroke-linecap="round" stroke-linejoin="round"/>
<path d="M7.5 7.5V4.5" stroke="#2F394A" stroke-width="1.25" stroke-linecap="round" stroke-linejoin="round"/>
</svg>
