<svg width="70" height="71" viewBox="0 0 70 71" fill="none" xmlns="http://www.w3.org/2000/svg">
<path d="M35 44C44.3888 44 52 36.3888 52 27C52 17.6112 44.3888 10 35 10C25.6112 10 18 17.6112 18 27C18 36.3888 25.6112 44 35 44Z" fill="#FFCC00"/>
<path d="M38.7098 19.7144C37.8416 19.7145 36.9891 19.9457 36.2399 20.3843C35.4907 20.8228 34.8716 21.4528 34.4464 22.2097C34.0211 21.4527 33.4019 20.8225 32.6524 20.3839C31.9029 19.9454 31.0502 19.7143 30.1818 19.7144C28.8519 19.7862 27.6009 20.368 26.689 21.3387C25.7771 22.3094 25.2745 23.5943 25.2858 24.9261C25.2858 31.7176 34.4464 36.4557 34.4464 36.4557C34.4464 36.4557 43.607 31.72 43.607 24.9261C43.6183 23.5941 43.1155 22.309 42.2034 21.3383C41.2912 20.3675 40.0399 19.7859 38.7098 19.7144V19.7144Z" fill="white"/>
<defs>
<filter id="filter0_d_554:2243" x="0" y="0.5" width="70" height="70" filterUnits="userSpaceOnUse" color-interpolation-filters="sRGB">
<feFlood flood-opacity="0" result="BackgroundImageFix"/>
<feColorMatrix in="SourceAlpha" type="matrix" values="0 0 0 0 0 0 0 0 0 0 0 0 0 0 0 0 0 0 127 0" result="hardAlpha"/>
<feOffset dy="8.5"/>
<feGaussianBlur stdDeviation="9"/>
<feColorMatrix type="matrix" values="0 0 0 0 0.505882 0 0 0 0 0.156863 0 0 0 0 0.176471 0 0 0 0.4 0"/>
<feBlend mode="normal" in2="BackgroundImageFix" result="effect1_dropShadow_554:2243"/>
<feBlend mode="normal" in="SourceGraphic" in2="effect1_dropShadow_554:2243" result="shape"/>
</filter>
</defs>
</svg>
