<svg width="24" height="25" viewBox="0 0 24 25" fill="none" xmlns="http://www.w3.org/2000/svg">
<path d="M3 13L5.58555 20.8141C5.72105 21.2235 6.1037 21.5 6.53495 21.5H17.465C17.8963 21.5 18.2789 21.2235 18.4144 20.8141L21 13" stroke="#2F394A" stroke-width="1.25"/>
<path d="M5.70349 13.0614H3.1582C3.0708 13.0614 2.99976 12.9902 3.00175 12.9028C3.0819 9.3911 5.81699 6.4429 9.49994 5.5H14.4999C18.0386 6.518 20.9116 9.4789 20.9979 12.9029C21.0001 12.9902 20.9291 13.0614 20.8417 13.0614H18.2964C17.1383 13.0614 16.0196 13.4818 15.1481 14.2446C13.3458 15.8221 10.6541 15.8221 8.85174 14.2446C7.98029 13.4818 6.86159 13.0614 5.70349 13.0614Z" fill="white" stroke="#2F394A" stroke-width="1.25" stroke-linecap="round" stroke-linejoin="round"/>
<path d="M9.55 5.5C9.5172 5.33844 9.5 5.17123 9.5 5C9.5 3.61929 10.6193 2.5 12 2.5C13.3807 2.5 14.5 3.61929 14.5 5C14.5 5.17123 14.4828 5.33844 14.45 5.5" stroke="#2F394A" stroke-width="1.25" stroke-linecap="round" stroke-linejoin="round"/>
</svg>
