<svg width="20" height="21" viewBox="0 0 20 21" fill="none" xmlns="http://www.w3.org/2000/svg">
<path d="M10.1033 17.7815C10.0661 17.8035 10.0317 17.8237 10.0001 17.8421C9.9686 17.8237 9.93416 17.8035 9.89699 17.7814C9.67572 17.6503 9.35771 17.4548 8.97524 17.2C8.20934 16.6897 7.18993 15.9449 6.17265 15.0058C4.11868 13.1097 2.16692 10.5089 2.16693 7.51235L2.1669 7.50827C2.15761 6.37146 2.57043 5.27801 3.31432 4.45474C4.05445 3.63563 5.06465 3.14716 6.13472 3.08334C6.82716 3.08585 7.50796 3.27858 8.10823 3.64375C8.71271 4.01149 9.21455 4.54142 9.5602 5.18104L10.0001 5.99503L10.44 5.18104C10.7855 4.54157 11.2872 4.01174 11.8915 3.64401C12.4916 3.27885 13.1722 3.08603 13.8645 3.08334C14.9347 3.14691 15.9451 3.63527 16.6855 4.4544C17.4296 5.2777 17.8425 6.3713 17.8333 7.50827H17.8332V7.51235C17.8332 10.5101 15.8815 13.1108 13.8275 15.0066C12.8103 15.9456 11.7909 16.6902 11.025 17.2003C10.6425 17.455 10.3245 17.6504 10.1033 17.7815Z" stroke="#2F394A"/>
</svg>
