<svg width="24" height="25" viewBox="0 0 24 25" fill="none" xmlns="http://www.w3.org/2000/svg">
<path d="M16.2 4.7002L4.19995 16.7002L5.99995 18.5002L7.79995 20.3002L19.8 8.3002L18 6.5002L16.2 4.7002Z" fill="#FFCC00"/>
<path d="M21.0085 1.5498H21.0083C20.3876 1.55088 19.8047 1.84775 19.4388 2.34899L19.4386 2.3492L17.4899 5.02853L17.1331 4.67178C16.684 4.22267 15.9559 4.22268 15.5068 4.67178L4.17215 16.0065C3.72305 16.4556 3.72305 17.1837 4.17215 17.6328L4.5289 17.9896L1.84959 19.9383C0.982456 20.5689 0.790751 21.7831 1.42137 22.6502C2.05198 23.5173 3.26614 23.709 4.13323 23.0784H4.13324C4.29748 22.9589 4.44197 22.8144 4.56144 22.6502L4.44014 22.5619L4.56145 22.6502L6.51016 19.9708L6.86691 20.3276C7.31602 20.7767 8.04416 20.7767 8.49326 20.3276L19.8279 8.9929C20.277 8.5438 20.277 7.81566 19.8279 7.36656L19.4711 7.0098L22.1505 5.06107L22.0622 4.93977L22.1505 5.06107C23.0175 4.43036 23.2091 3.21619 22.5784 2.34915C22.2131 1.84694 21.6295 1.5498 21.0085 1.5498ZM2.4498 22.2527L2.36153 22.374L2.44979 22.2527C2.03852 21.9534 1.94774 21.3774 2.24706 20.9661L2.12578 20.8778L2.24706 20.9661C2.30363 20.8884 2.37204 20.82 2.44977 20.7634C2.44977 20.7634 2.44978 20.7634 2.44979 20.7634L5.25918 18.7198L5.77989 19.2406L3.73638 22.05C3.73638 22.05 3.73637 22.05 3.73636 22.05C3.43708 22.4612 2.86106 22.552 2.4498 22.2527ZM10.0939 17.2846L10.0924 17.2861L9.49435 17.9011L9.49241 17.903L8.28159 19.1032C7.94922 19.4326 7.41308 19.4314 7.08217 19.1005L5.40235 17.4207C5.0704 17.0887 5.0704 16.5505 5.40235 16.2186L15.7189 5.90199C16.0509 5.57004 16.5891 5.57004 16.921 5.90199L18.7339 7.71484C18.9906 7.97159 18.9906 8.38787 18.7339 8.64462L18.2248 9.15366L10.0939 17.2846ZM21.753 4.03472C21.6965 4.11246 21.628 4.18088 21.5503 4.23745L18.7409 6.28096L18.2202 5.76025L20.2637 2.95085C20.563 2.53958 21.139 2.4488 21.5503 2.74812C21.9616 3.04744 22.0523 3.62344 21.753 4.03472Z" fill="#2F394A" stroke="#2F394A" stroke-width="0.3"/>
</svg>
