<svg width="24" height="24" viewBox="0 0 24 24" fill="none" xmlns="http://www.w3.org/2000/svg">
<path d="M2.5 7.50002C-0.3 9.50002 1 12.3334 2 13.5C5.81264 16.6772 7.80826 15.6147 8.5 13.7763C13.7 14.7973 15.6667 13.3508 16 12.5C18.8 15.7 21.1667 14.5 22 13.5C24.8 11.1 22.5 8.16667 21 7C21.8 5.4 19.6667 4 18.5 3.5C18 3.83334 16.8 4.10002 16 2.50002C15.2 0.900023 12 0.833357 10.5 1.00002L5.5 3.00002C3.1 3.00002 2.5 6.00002 2.5 7.50002Z" fill="#FFCC00"/>
<path d="M5.35121 15.9829C6.0145 15.9829 6.62215 15.874 7.17863 15.6704C8.0814 16.9065 9.32703 19.2791 9.32703 22.974C9.32703 23.2945 9.58734 23.5548 9.90778 23.5548C10.2287 23.5548 10.4885 23.2945 10.4885 22.974C10.4885 19.1024 9.20914 16.5344 8.22197 15.1289C8.26444 15.0994 8.30822 15.0701 8.35041 15.0393C9.18039 15.7885 9.97872 16.642 10.6884 18.0714C10.7881 18.2727 10.992 18.3945 11.2085 18.3945C11.2523 18.3945 11.2971 18.3892 11.3414 18.3792C11.6044 18.3175 11.7898 18.083 11.7898 17.8132V14.6624C12.0612 14.6587 12.3318 14.6378 12.5995 14.6041V18.2513C12.5995 18.7252 12.9239 19.1174 13.3888 19.2055C13.4516 19.2174 13.5144 19.2226 13.5763 19.2226C13.9685 19.2226 14.3211 18.9876 14.4707 18.6089C15.0828 17.0592 15.9017 15.6857 16.886 14.496C17.0184 14.5906 17.1574 14.6764 17.299 14.7557C16.3936 15.9502 14.5994 18.8365 14.5994 22.9738C14.5994 23.2942 14.8592 23.5545 15.1801 23.5545C15.5006 23.5545 15.7609 23.2942 15.7609 22.9738C15.7609 18.8426 17.7632 16.0251 18.4299 15.2015C18.7632 15.2814 19.1074 15.3267 19.4585 15.3267C21.8999 15.3267 23.885 13.3411 23.885 10.9007C23.885 9.23574 22.9772 7.75011 21.5333 6.98844C21.5628 6.81015 21.5781 6.62976 21.5781 6.44804C21.5781 4.6309 20.0999 3.15292 18.2827 3.15292C18.0053 3.15292 17.7334 3.18642 17.468 3.2542C16.118 1.41886 13.993 0.335693 11.6985 0.335693C9.90224 0.335693 8.20404 0.993979 6.88378 2.1953C6.69573 2.17024 6.50479 2.15758 6.31358 2.15758C3.96501 2.15758 2.05503 4.06756 2.05503 6.41455C2.05503 6.51292 2.0582 6.6113 2.06532 6.70888C0.848174 7.69684 0.131866 9.188 0.131866 10.7636C0.131866 13.6414 2.47332 15.9829 5.35121 15.9829ZM9.41406 14.4451C9.79463 14.5413 10.196 14.5996 10.6275 14.6294V15.7738C10.2309 15.2553 9.82206 14.8304 9.41406 14.4451ZM13.7612 17.31V14.3591C14.4825 14.1415 15.1696 13.8134 15.7925 13.3793C15.8674 13.4898 15.9518 13.5924 16.036 13.6947C15.1419 14.7644 14.3747 15.97 13.7612 17.31ZM2.37362 8.01675C2.67877 8.76365 3.19015 9.42246 3.85872 9.89481C3.96 9.96655 4.07789 10.0019 4.1934 10.0019C4.37565 10.0019 4.55525 9.91618 4.66866 9.75556C4.85354 9.49367 4.79077 9.13103 4.52967 8.94615C3.84343 8.46062 3.3782 7.71002 3.25292 6.88585V6.88374C3.22892 6.72892 3.21679 6.57147 3.21679 6.41455C3.21679 4.70791 4.60615 3.31908 6.31384 3.31908C6.528 3.31908 6.7403 3.3415 6.94655 3.38475C7.94347 3.59152 8.7745 4.27565 9.16984 5.21771C9.26321 5.43978 9.47841 5.57376 9.70575 5.57376C9.78065 5.57376 9.85661 5.55899 9.93046 5.5284C10.2266 5.40418 10.3656 5.06369 10.2411 4.76778C9.8429 3.81807 9.12079 3.0622 8.22382 2.61226C9.23314 1.892 10.4355 1.49745 11.6988 1.49745C13.5471 1.49745 15.2579 2.3422 16.3933 3.77323C15.3484 4.62958 15.3307 6.16901 15.3307 6.24497C15.3307 6.56541 15.591 6.82571 15.9115 6.82571C16.2324 6.82571 16.4922 6.56541 16.4922 6.24497C16.4922 6.23125 16.5189 4.844 17.4475 4.48374C17.4504 4.48268 17.453 4.48084 17.4559 4.47925L17.4601 4.4782C17.722 4.36954 17.9987 4.31415 18.283 4.31415C19.4592 4.31415 20.4171 5.27125 20.4171 6.44778C20.4171 6.67802 20.3784 6.90774 20.3032 7.12927C20.203 7.42334 20.3528 7.74431 20.6426 7.85719C21.9065 8.34932 22.7238 9.54404 22.7238 10.9004C22.7238 12.7002 21.259 14.1644 19.4587 14.1644C18.1904 14.1644 17.0276 13.4196 16.4949 12.2674C16.4917 12.2613 16.4867 12.2558 16.4835 12.2497C16.4814 12.245 16.4809 12.2405 16.4788 12.2357C16.2897 11.8161 16.1942 11.3667 16.1942 10.9004C16.1942 10.2791 16.3688 9.67459 16.6995 9.15292C16.8715 8.88233 16.7913 8.52259 16.5202 8.35143C16.2501 8.17921 15.8904 8.25912 15.7187 8.53077C15.2693 9.23837 15.0319 10.0583 15.0319 10.9004C15.0319 11.3899 15.1123 11.866 15.2669 12.3209C14.2373 13.0836 12.9866 13.5038 11.6985 13.5038C10.8483 13.5038 10.1931 13.465 9.60765 13.3004C10.1784 10.9379 8.70488 10.1712 8.6371 10.1377C8.35542 9.99925 8.02206 10.1121 7.87384 10.3898C7.72615 10.6676 7.83428 11.0165 8.10778 11.1718C8.14233 11.1916 8.93169 11.6695 8.37679 13.3843C7.62804 14.3475 6.6385 14.8198 5.35121 14.8198C3.11367 14.8198 1.29336 12.9998 1.29336 10.7625C1.29336 9.73657 1.68923 8.75969 2.37362 8.01675Z" fill="#2F394A"/>
</svg>
