<svg width="20" height="21" viewBox="0 0 20 21" fill="none" xmlns="http://www.w3.org/2000/svg">
<path fill-rule="evenodd" clip-rule="evenodd" d="M4.573 2.61153C4.573 2.36585 4.77216 2.16669 5.01784 2.16669H14.9822C15.2279 2.16669 15.4271 2.36585 15.4271 2.61153V8.27755C15.4271 11.3435 13.0094 13.8511 10 13.8511C6.9907 13.8511 4.573 11.3435 4.573 8.27755V2.61153ZM5.46268 3.05637V8.27755C5.46268 10.8766 7.50619 12.9614 10 12.9614C12.4939 12.9614 14.5374 10.8766 14.5374 8.27755V3.05637H5.46268Z" fill="#2F394A"/>
<path fill-rule="evenodd" clip-rule="evenodd" d="M1.25146 5.51808C1.25146 5.2724 1.45063 5.07324 1.6963 5.07324H5.01777C5.26345 5.07324 5.46261 5.2724 5.46261 5.51808V9.66991C5.46261 9.91559 5.26345 10.1148 5.01777 10.1148C3.06843 10.1148 1.25146 8.4864 1.25146 5.51808ZM2.1569 5.96292C2.30171 7.95996 3.42224 8.97854 4.57293 9.18525V5.96292H2.1569Z" fill="#2F394A"/>
<path fill-rule="evenodd" clip-rule="evenodd" d="M14.5374 5.51784C14.5374 5.27216 14.7365 5.073 14.9822 5.073H18.3037C18.5493 5.073 18.7485 5.27216 18.7485 5.51784C18.7485 8.48616 16.9315 10.1145 14.9822 10.1145C14.7365 10.1145 14.5374 9.91535 14.5374 9.66967V5.51784ZM15.427 5.96268V9.18501C16.5777 8.9783 17.6982 7.95971 17.8431 5.96268H15.427Z" fill="#2F394A"/>
<path fill-rule="evenodd" clip-rule="evenodd" d="M10 13.7918C10.2457 13.7918 10.4449 13.991 10.4449 14.2366V15.8974C10.4449 16.1431 10.2457 16.3422 10 16.3422C9.75434 16.3422 9.55518 16.1431 9.55518 15.8974V14.2366C9.55518 13.991 9.75434 13.7918 10 13.7918Z" fill="#2F394A"/>
<path fill-rule="evenodd" clip-rule="evenodd" d="M7.41657 15.6643C7.49752 15.5327 7.64097 15.4525 7.79548 15.4525H12.0937C12.2432 15.4525 12.3827 15.5276 12.465 15.6524L14.1081 18.1435C14.1982 18.2801 14.206 18.4552 14.1284 18.5993C14.0508 18.7434 13.9004 18.8333 13.7367 18.8333H6.26344C6.10231 18.8333 5.95377 18.7462 5.87515 18.6055C5.79653 18.4648 5.80011 18.2927 5.88453 18.1554L7.41657 15.6643ZM8.04414 16.3422L7.05925 17.9436H12.9104L11.8542 16.3422H8.04414Z" fill="#2F394A"/>
</svg>
