<svg width="40" height="40" viewBox="0 0 40 40" fill="none" xmlns="http://www.w3.org/2000/svg">
<path d="M20 39.8147C31.0457 39.8147 40 30.9434 40 20.0001C40 9.05685 31.0457 0.185547 20 0.185547C8.9543 0.185547 0 9.05685 0 20.0001C0 30.9434 8.9543 39.8147 20 39.8147Z" fill="white"/>
<path d="M31.3493 30.126C29.4132 32.0087 26.5028 34.8326 20.5243 34.8326C15.7642 34.8326 9.69922 32.7254 9.69922 30.126C11.0576 27.7728 14.5458 25.8901 20.5243 25.8901C24.236 26.3608 31.3493 27.5267 31.3493 30.126Z" fill="#FFCC00"/>
<path fill-rule="evenodd" clip-rule="evenodd" d="M20 35.5152C28.435 35.5152 35.2728 28.6774 35.2728 20.2425C35.2728 11.8076 28.435 4.96973 20 4.96973C11.5651 4.96973 4.72729 11.8076 4.72729 20.2425C4.72729 28.6774 11.5651 35.5152 20 35.5152ZM30.4293 29.7608C27.8473 32.5883 24.1308 34.3621 20 34.3621C16.1875 34.3621 12.728 32.8511 10.1875 30.3953C11.4506 28.9237 14.4199 27.2725 18.1954 26.7678C21.8726 26.2763 26.2497 26.8839 30.4293 29.7608ZM9.37296 29.5395C7.19832 27.0558 5.8804 23.803 5.8804 20.2425C5.8804 12.4444 12.202 6.12283 20 6.12283C27.7981 6.12283 34.1197 12.4444 34.1197 20.2425C34.1197 23.485 33.0267 26.4722 31.1891 28.8558C26.7145 25.7395 21.9983 25.0724 18.0395 25.6015C14.1425 26.1225 10.9134 27.8143 9.37296 29.5395Z" fill="#2F394A" stroke="#2F394A" stroke-width="0.484848"/>
<path d="M24.7066 15.5357C24.7066 18.135 22.5994 20.2422 20 20.2422C17.4007 20.2422 15.2935 18.135 15.2935 15.5357C15.2935 12.9363 17.4007 10.8291 20 10.8291C22.5994 10.8291 24.7066 12.9363 24.7066 15.5357Z" fill="#FFCC00"/>
<path fill-rule="evenodd" clip-rule="evenodd" d="M25.8594 15.5359C25.8594 18.7721 23.236 21.3956 19.9998 21.3956C16.7636 21.3956 14.1401 18.7721 14.1401 15.5359C14.1401 12.2997 16.7636 9.67627 19.9998 9.67627C23.236 9.67627 25.8594 12.2997 25.8594 15.5359ZM19.9998 20.2424C22.5991 20.2424 24.7063 18.1353 24.7063 15.5359C24.7063 12.9365 22.5991 10.8294 19.9998 10.8294C17.4004 10.8294 15.2932 12.9365 15.2932 15.5359C15.2932 18.1353 17.4004 20.2424 19.9998 20.2424Z" fill="#2F394A"/>
</svg>
